<svg xmlns="http://www.w3.org/2000/svg" viewBox="0 0 860 380" font-family="ui-sans-serif, system-ui, -apple-system, sans-serif" font-size="13">
  <title>Execute-loop flow</title>
  <desc>The execute-loop drains the bead queue: claim a ready bead, render the prompt, run the agent in an isolated worktree, review the result, merge or push (with auto-recovery on race), then close the bead.</desc>

  <defs>
    <marker id="el" viewBox="0 0 10 10" refX="9" refY="5" markerWidth="7" markerHeight="7" orient="auto">
      <path d="M0 0 L10 5 L0 10 z" fill="#333"/>
    </marker>
  </defs>

  <text x="430" y="34" text-anchor="middle" font-weight="700" font-size="16">Execute-loop</text>
  <text x="430" y="54" text-anchor="middle" fill="#555">ddx work · drains the bead queue end-to-end</text>

  <!-- Steps in a row -->
  <g font-weight="600" text-anchor="middle">
    <g>
      <rect x="30"  y="130" width="120" height="60" rx="8" fill="#eaf6ee" stroke="#35a35f" stroke-width="2"/>
      <text x="90" y="158">claim</text>
      <text x="90" y="178" font-weight="400" font-size="11" fill="#1c5a31">ready bead</text>
    </g>
    <g>
      <rect x="180" y="130" width="120" height="60" rx="8" fill="#eaf6ee" stroke="#35a35f" stroke-width="2"/>
      <text x="240" y="158">render</text>
      <text x="240" y="178" font-weight="400" font-size="11" fill="#1c5a31">prompt + context</text>
    </g>
    <g>
      <rect x="330" y="130" width="120" height="60" rx="8" fill="#eaf6ee" stroke="#35a35f" stroke-width="2"/>
      <text x="390" y="158">run agent</text>
      <text x="390" y="178" font-weight="400" font-size="11" fill="#1c5a31">isolated worktree</text>
    </g>
    <g>
      <rect x="480" y="130" width="120" height="60" rx="8" fill="#fff4dc" stroke="#c9942a" stroke-width="2"/>
      <text x="540" y="158">review</text>
      <text x="540" y="178" font-weight="400" font-size="11" fill="#7a5a13">stronger model</text>
    </g>
    <g>
      <rect x="630" y="130" width="120" height="60" rx="8" fill="#e3eefc" stroke="#3b6db8" stroke-width="2"/>
      <text x="690" y="158">merge / push</text>
      <text x="690" y="178" font-weight="400" font-size="11" fill="#1f3a68">auto-recover on race</text>
    </g>
    <g>
      <rect x="780" y="130" width="60" height="60" rx="8" fill="#dff3e1" stroke="#2e7a3a" stroke-width="2"/>
      <text x="810" y="165">close</text>
    </g>
  </g>

  <!-- Forward arrows -->
  <g fill="none" stroke="#333" stroke-width="1.6" marker-end="url(#el)">
    <path d="M150 160 L178 160"/>
    <path d="M300 160 L328 160"/>
    <path d="M450 160 L478 160"/>
    <path d="M600 160 L628 160"/>
    <path d="M750 160 L778 160"/>
  </g>

  <!-- Loop back -->
  <g fill="none" stroke="#666" stroke-width="1.4" stroke-dasharray="5,4" marker-end="url(#el)">
    <path d="M810 190 C 810 280, 90 290, 90 192"/>
  </g>
  <text x="450" y="290" text-anchor="middle" fill="#444" font-size="12">next ready bead</text>

  <!-- Branch from review -->
  <g fill="none" stroke="#b3361b" stroke-width="1.4" stroke-dasharray="4,3" marker-end="url(#el)">
    <path d="M540 130 C 540 80, 390 80, 390 128"/>
  </g>
  <text x="465" y="76" fill="#b3361b" font-size="12" text-anchor="middle">findings → re-run</text>

  <!-- Bottom note -->
  <text x="430" y="350" text-anchor="middle" fill="#555" font-size="12">cheap models do · stronger models review · deterministic fixes at the top of the ladder</text>
</svg>
